<svg width="1440" height="26" viewBox="0 0 1440 26" fill="none" xmlns="http://www.w3.org/2000/svg">
<g clip-path="url(#clip0)">
<path d="M-986 23.4287C-927.067 18.905 -868.305 31.3747 -790.818 21.2027C-713.33 11.0308 -628.092 14.3676 -588.305 13.2567C-522.234 11.4137 -458.066 13.7579 -365.154 19.2004C-222.676 27.5452 -99.4636 18.1571 -42.0735 18.156C15.3155 18.1539 79.3318 20.7723 147.53 19.0939C215.729 17.4144 241.211 25.6895 319.76 18.1444C398.31 10.5993 414.95 21.1648 509.764 18.1381C604.58 15.1124 629.584 31.112 690.497 21.6553C765.313 10.0402 805.507 19.787 873.025 17.677C940.543 15.5671 1003.84 15.5671 1052.37 15.5671C1100.9 15.5671 1193.73 15.5671 1250.7 11.3473C1307.67 7.1274 1343.54 9.23733 1392.07 11.3473C1440.6 13.4572 1584.42 14.3455 1635.75 7.92917C1711.71 -1.56657 1853.09 -1.31232 1964.91 9.23733" stroke="#F3F3F3"/>
</g>
<defs>
<clipPath id="clip0">
<rect width="2951" height="26" fill="white" transform="translate(-986)"/>
</clipPath>
</defs>
</svg>
