<svg width="1528" height="163" viewBox="0 0 1528 163" fill="none" xmlns="http://www.w3.org/2000/svg">
<path fill-rule="evenodd" clip-rule="evenodd" d="M1527.74 7.9311C1474.28 3.88977 1410.12 -2.84577 1350.16 1.30198C1284.99 5.81007 1216.69 24.0334 1155.97 27.0641C1095.25 30.0951 1049.42 24.5386 1007.03 23.0231C964.643 21.5076 861.677 12.8363 812.748 13.7765C763.819 14.7168 719.63 19.46 702.565 21.7901C685.5 24.12 647.654 23.4973 630.374 23.3454C613.095 23.1935 587.623 22.1875 545.457 18.1088C503.291 14.0301 461.59 10.7802 384.146 13.7765C311.046 15.9511 279.54 22.0127 231.996 19.4869C184.451 16.9614 119.148 4.83814 0 20.4973L0 162.848H1524.69C1524.69 162.848 1527.74 -0.15155 1527.74 7.9311Z" fill="#F4F4F4"/>
</svg>
