<svg width="1440" height="137" viewBox="0 0 1440 137" fill="none" xmlns="http://www.w3.org/2000/svg">
<path fill-rule="evenodd" clip-rule="evenodd" d="M-23 119.301C20.4123 116.004 57.146 120.949 103.898 124.245C150.649 127.542 180.705 127.542 202.077 127.542C223.449 127.542 263.001 124.947 263.001 124.947C268.83 125.331 316.93 123.36 352.379 126.324C427.328 132.59 481.674 128.629 516.929 125.596C554.582 122.357 579.325 121.423 604.156 121.323C628.986 121.223 647.702 120.552 668.372 118.78C689.042 117.007 725.115 117.784 757.578 123.432C790.041 129.079 820.552 128.444 851.066 126.421C881.579 124.397 908.7 120.673 944.758 122.697C968.798 124.046 985.489 125.054 994.834 125.72C1046.28 131.25 1069.66 135.371 1105.72 133.31C1141.79 131.25 1169.77 128.529 1202.57 127.542C1229.95 126.718 1262.01 128.778 1286.72 132.486C1311.43 136.195 1392.91 140.315 1441 129.19V0H-21.4504L-23 119.301Z" fill="#FEFEFE"/>
</svg>
